<svg width="27" height="22" viewBox="0 0 27 22" fill="none" xmlns="http://www.w3.org/2000/svg">
<path d="M0 20.8848C0 21.4122 0.433594 21.8223 0.9375 21.8223H25.1953C25.7109 21.8223 26.1445 21.4122 26.1445 20.8848C26.1445 20.3692 25.7109 19.9473 25.1953 19.9473H0.9375C0.433594 19.9473 0 20.3692 0 20.8848Z" fill="#584898"/>
<path d="M20.1445 16.9707C20.1445 17.6269 20.5547 18.0136 21.2344 18.0136H23.9414C24.6094 18.0136 25.0312 17.6269 25.0312 16.9707V9.22461C25.0312 8.56835 24.6094 8.16992 23.9414 8.16992H21.2344C20.5547 8.16992 20.1445 8.56835 20.1445 9.22461V16.9707Z" fill="#584898"/>
<path d="M13.793 16.9707C13.793 17.6269 14.2148 18.0136 14.8828 18.0136H17.5898C18.2695 18.0136 18.6914 17.6269 18.6914 16.9707V3.89257C18.6914 3.23632 18.2695 2.84961 17.5898 2.84961H14.8828C14.2148 2.84961 13.793 3.23632 13.793 3.89257V16.9707Z" fill="#584898"/>
<path d="M7.45312 16.9707C7.45312 17.6269 7.86328 18.0136 8.53125 18.0136H11.25C11.918 18.0136 12.3398 17.6269 12.3398 16.9707V1.2207C12.3398 0.564453 11.918 0.177734 11.25 0.177734H8.53125C7.86328 0.177734 7.45312 0.564453 7.45312 1.2207V16.9707Z" fill="#584898"/>
<path d="M1.10156 16.9707C1.10156 17.6269 1.52344 18.0136 2.19141 18.0136H4.89844C5.57812 18.0136 6 17.6269 6 16.9707V6.59961C6 5.95507 5.57812 5.55664 4.89844 5.55664H2.19141C1.52344 5.55664 1.10156 5.95507 1.10156 6.59961V16.9707Z" fill="#584898"/>
</svg>
