<svg width="18" height="9" viewBox="0 0 18 9" fill="none" xmlns="http://www.w3.org/2000/svg">
<path d="M0.492404 8.99996H1.27292C1.63317 8.99996 1.81328 8.82586 1.91535 8.56769C3.01409 5.84183 4.12483 3.11003 5.22957 0.384211C5.3136 0.186079 5.21753 0.0119629 5.00741 0.0119629H4.61716C4.40702 0.0119629 4.27493 0.114031 4.18487 0.294151C2.80995 2.97194 1.44704 5.6497 0.0721234 8.3335C-0.0959888 8.63973 0.0240914 8.99996 0.492404 8.99996ZM16.0308 8.99996H16.8173C17.2796 8.99996 17.3997 8.63973 17.2316 8.3335C15.8687 5.6497 14.4937 2.97194 13.1248 0.294151C13.0287 0.114031 12.8967 0.0119629 12.6866 0.0119629H12.2963C12.0861 0.0119629 11.9961 0.186079 12.0742 0.384211C13.1789 3.11003 14.2896 5.84183 15.3883 8.56769C15.4904 8.82586 15.6705 8.99996 16.0308 8.99996ZM8.51374 1.65106H8.77795C9.02408 1.65106 9.21621 1.46493 9.21621 1.21277C9.21621 0.960596 9.21621 0.702422 9.21621 0.450255C9.21621 0.198087 9.02408 0.0119629 8.77795 0.0119629H8.51374C8.26761 0.0119629 8.07548 0.198087 8.07548 0.450255C8.07548 0.702422 8.07548 0.960596 8.07548 1.21277C8.07548 1.46493 8.26761 1.65106 8.51374 1.65106ZM8.51374 5.07334H8.77795C9.02408 5.07334 9.21621 4.89322 9.21621 4.64105C9.21621 4.22077 9.21621 3.78848 9.21621 3.3682C9.21621 3.11603 9.02408 2.93591 8.77795 2.93591H8.51374C8.26761 2.93591 8.07548 3.11603 8.07548 3.3682C8.07548 3.78848 8.07548 4.22077 8.07548 4.64105C8.07548 4.89322 8.26761 5.07334 8.51374 5.07334ZM8.51374 8.99996H8.77795C9.02408 8.99996 9.21621 8.81382 9.21621 8.56165C9.21621 7.99131 9.21621 7.41492 9.21621 6.83854C9.21621 6.58636 9.02408 6.40622 8.77795 6.40622H8.51374C8.26761 6.40622 8.07548 6.58636 8.07548 6.83854C8.07548 7.41492 8.07548 7.99131 8.07548 8.56165C8.07548 8.81382 8.26761 8.99996 8.51374 8.99996Z" fill="#989898" fill-opacity="0.85"/>
</svg>
