<svg width="21" height="21" viewBox="0 0 21 21" fill="none" xmlns="http://www.w3.org/2000/svg">
<g clip-path="url(#clip0_29_385)">
<path d="M14.064 3.72632C14.4832 3.7263 14.896 3.82996 15.2654 4.02807C15.6349 4.22618 15.9496 4.51258 16.1816 4.86178L16.2705 5.00752L17.9602 7.96311H18.9448C19.0229 7.96309 19.0987 7.99007 19.1592 8.03949C19.2197 8.0889 19.2613 8.15771 19.277 8.23426L19.2837 8.30205V8.70455C19.2838 8.83997 19.2434 8.97233 19.1676 9.08454C19.0917 9.19675 18.984 9.28369 18.8584 9.33413L18.7499 9.36803C19.0674 10.0274 19.2087 10.7579 19.16 11.4881L19.1371 11.7313L18.5228 16.6468C18.4745 17.034 18.2941 17.3925 18.012 17.6621C17.73 17.9316 17.3636 18.0956 16.9747 18.1263L16.8408 18.1314H15.8943C15.4668 18.1315 15.0549 17.9701 14.7414 17.6793C14.4279 17.3886 14.2359 16.9901 14.2038 16.5638L14.1996 16.4367H7.42073C7.42086 16.8642 7.25938 17.2761 6.96866 17.5896C6.67794 17.9031 6.27947 18.0951 5.85311 18.1272L5.72601 18.1314H4.77951C4.3893 18.1316 4.01096 17.9972 3.70838 17.7508C3.4058 17.5044 3.19751 17.1612 3.11869 16.779L3.09751 16.6468L2.48317 11.7322C2.39239 11.0052 2.49166 10.2672 2.77127 9.59004L2.87041 9.36718L2.85008 9.36295C2.71859 9.33014 2.59995 9.25868 2.50947 9.15778C2.419 9.05688 2.36084 8.93119 2.34251 8.79691L2.33658 8.70455V8.30205C2.33656 8.22392 2.36354 8.14817 2.41296 8.08764C2.46237 8.02711 2.53117 7.98552 2.60773 7.96989L2.67552 7.96311H3.661L5.34978 5.00752C5.55781 4.64344 5.85266 4.33646 6.20809 4.11396C6.56351 3.89145 6.96845 3.76032 7.38683 3.73225L7.5563 3.72632H14.064ZM17.3857 10.5357C16.9475 11.0159 16.3397 11.3067 15.6909 11.3466L15.5164 11.3525H6.10393C5.75266 11.3548 5.40483 11.2833 5.08296 11.1426C4.7611 11.0018 4.47238 10.7951 4.23551 10.5357C4.16555 10.7916 4.1361 11.057 4.14823 11.322L4.16518 11.5212L4.77951 16.4367H5.72601V15.5893C5.72604 15.3818 5.80224 15.1815 5.94015 15.0264C6.07807 14.8713 6.26811 14.7722 6.47423 14.7479L6.57337 14.742H15.047C15.2545 14.742 15.4548 14.8182 15.6099 14.9561C15.765 15.094 15.8641 15.2841 15.8884 15.4902L15.8943 15.5893V16.4367H16.8408L17.4551 11.5212C17.4975 11.189 17.4729 10.8543 17.3857 10.5357ZM5.50316 12.1135L7.82746 13.3693C8.14352 13.5404 8.01218 14.0209 7.6529 14.0065L5.69212 13.9277C5.47346 13.9189 5.26666 13.8259 5.11503 13.6681C4.9634 13.5103 4.8787 13.3 4.87865 13.0812V12.488C4.87861 12.4146 4.89764 12.3424 4.93388 12.2786C4.97012 12.2148 5.02232 12.1614 5.08537 12.1239C5.14842 12.0863 5.22015 12.0657 5.29354 12.0642C5.36692 12.0627 5.43945 12.0802 5.504 12.1152L5.50316 12.1135ZM16.7408 12.4863V13.0803C16.741 13.2993 16.6564 13.5098 16.5047 13.6678C16.3531 13.8258 16.1462 13.9189 15.9274 13.9277L13.9666 14.0056C13.6073 14.02 13.4751 13.5396 13.792 13.3684L16.1155 12.1143C16.18 12.0794 16.2525 12.0618 16.3259 12.0633C16.3993 12.0649 16.4711 12.0854 16.5341 12.123C16.5972 12.1606 16.6494 12.2139 16.6856 12.2778C16.7218 12.3416 16.7409 12.4129 16.7408 12.4863ZM14.064 5.42103H7.5563C7.40695 5.42108 7.26025 5.46061 7.13109 5.53561C7.00192 5.61061 6.89488 5.71841 6.8208 5.8481L5.36843 8.39018C5.29483 8.51903 5.25635 8.66494 5.25685 8.81333C5.25735 8.96172 5.29681 9.10737 5.37128 9.23572C5.44575 9.36407 5.55262 9.47061 5.6812 9.54469C5.80977 9.61876 5.95554 9.65778 6.10393 9.65783H15.5164C15.6648 9.65778 15.8105 9.61876 15.9391 9.54469C16.0677 9.47061 16.1746 9.36407 16.249 9.23572C16.3235 9.10737 16.363 8.96172 16.3635 8.81333C16.364 8.66494 16.3255 8.51903 16.2519 8.39018L14.7995 5.8481C14.7254 5.71829 14.6182 5.6104 14.4889 5.53539C14.3595 5.46039 14.2127 5.42093 14.0632 5.42103H14.064Z" fill="#0073F3"/>
</g>
<defs>
<clipPath id="clip0_29_385">
<rect width="20.3366" height="20.3366" fill="white" transform="translate(0.641876 0.33667)"/>
</clipPath>
</defs>
</svg>
