<svg width="253" height="81" viewBox="0 0 253 81" fill="none" xmlns="http://www.w3.org/2000/svg">
<mask id="mask0_8_136" style="mask-type:alpha" maskUnits="userSpaceOnUse" x="0" y="0" width="253" height="81">
<rect width="252.057" height="81" rx="40.5" fill="black"/>
</mask>
<g mask="url(#mask0_8_136)">
<g filter="url(#filter0_dii_8_136)">
<path fill-rule="evenodd" clip-rule="evenodd" d="M252.057 24.3849C252.057 23.4101 252.058 22.4351 252.039 21.4602C252.024 20.6389 251.995 19.8178 251.927 18.9969C251.779 17.2077 251.455 15.4032 250.478 13.634C249.488 11.8393 247.87 10.1689 245.321 8.53819C242.815 6.93538 239.542 5.46872 235.636 4.19718C231.732 2.92564 227.229 1.8599 222.307 1.044C217.297 0.213345 212.164 -0.313447 206.649 -0.636041C201.218 -0.953751 195.678 -1.05909 190.186 -1.10742C187.665 -1.12965 185.143 -1.13902 182.621 -1.1441C179.627 -1.15008 176.633 -1.14958 173.639 -1.14958L138.875 -1.19014H112.874L78.7252 -1.14958C75.7253 -1.14958 72.7254 -1.15008 69.7256 -1.1441C67.1983 -1.13902 64.6722 -1.12965 62.1459 -1.10742C56.6413 -1.05909 51.0885 -0.953651 45.6445 -0.635542C40.1223 -0.313049 34.9821 0.213544 29.9648 1.0436C25.0329 1.8596 20.5201 2.92544 16.6072 4.19718C12.6948 5.46862 9.41535 6.93499 6.90489 8.53749C4.34886 10.169 2.72825 11.8404 1.73532 13.6361C0.757694 15.4046 0.433754 17.2085 0.284785 18.9969C0.216877 19.8179 0.187512 20.639 0.172217 21.4602C0.153864 22.4352 0 23.6464 0 24.6213L0.000917675 35.5927L0 44.1543L0.155393 55.3588C0.155393 56.335 0.154169 57.3113 0.172217 58.2875C0.187512 59.1099 0.216877 59.9321 0.285091 60.7541C0.433754 62.5456 0.758305 64.3527 1.73685 66.1243C2.72947 67.9215 4.34978 69.5942 6.90367 71.227C9.41443 72.8321 12.6945 74.3007 16.6072 75.574C20.5198 76.8473 25.0314 77.9145 29.9624 78.7316C34.9827 79.5633 40.1253 80.0908 45.651 80.4138C51.0925 80.732 56.6435 80.8375 62.1459 80.8859C64.6722 80.9081 67.1986 80.9176 69.7259 80.9226C72.7257 80.9285 75.7253 80.9281 78.7252 80.9281L113.183 80.9284H139.248L173.639 80.928C176.633 80.928 179.627 80.9285 182.621 80.9226C185.143 80.9176 187.665 80.9081 190.186 80.8859C195.68 80.8374 201.222 80.7318 206.656 80.4134C212.167 80.0904 217.297 79.5631 222.305 78.7319C227.227 77.9149 231.731 76.8475 235.636 75.574C239.541 74.3009 242.814 72.8325 245.32 71.2277C247.871 69.5941 249.488 67.9206 250.479 66.1222C251.455 64.3513 251.779 62.5449 251.927 60.7541C251.995 59.932 252.024 59.1098 252.039 58.2875C252.058 57.3113 252.057 56.335 252.057 55.3588C252.057 55.3588 252.055 44.3521 252.055 44.1543V35.5837C252.055 35.4376 252.057 24.3849 252.057 24.3849Z" fill="url(#paint0_linear_8_136)"/>
<path fill-rule="evenodd" clip-rule="evenodd" d="M252.057 24.3849C252.057 23.4101 252.058 22.4351 252.039 21.4602C252.024 20.6389 251.995 19.8178 251.927 18.9969C251.779 17.2077 251.455 15.4032 250.478 13.634C249.488 11.8393 247.87 10.1689 245.321 8.53819C242.815 6.93538 239.542 5.46872 235.636 4.19718C231.732 2.92564 227.229 1.8599 222.307 1.044C217.297 0.213345 212.164 -0.313447 206.649 -0.636041C201.218 -0.953751 195.678 -1.05909 190.186 -1.10742C187.665 -1.12965 185.143 -1.13902 182.621 -1.1441C179.627 -1.15008 176.633 -1.14958 173.639 -1.14958L138.875 -1.19014H112.874L78.7252 -1.14958C75.7253 -1.14958 72.7254 -1.15008 69.7256 -1.1441C67.1983 -1.13902 64.6722 -1.12965 62.1459 -1.10742C56.6413 -1.05909 51.0885 -0.953651 45.6445 -0.635542C40.1223 -0.313049 34.9821 0.213544 29.9648 1.0436C25.0329 1.8596 20.5201 2.92544 16.6072 4.19718C12.6948 5.46862 9.41535 6.93499 6.90489 8.53749C4.34886 10.169 2.72825 11.8404 1.73532 13.6361C0.757694 15.4046 0.433754 17.2085 0.284785 18.9969C0.216877 19.8179 0.187512 20.639 0.172217 21.4602C0.153864 22.4352 0 23.6464 0 24.6213L0.000917675 35.5927L0 44.1543L0.155393 55.3588C0.155393 56.335 0.154169 57.3113 0.172217 58.2875C0.187512 59.1099 0.216877 59.9321 0.285091 60.7541C0.433754 62.5456 0.758305 64.3527 1.73685 66.1243C2.72947 67.9215 4.34978 69.5942 6.90367 71.227C9.41443 72.8321 12.6945 74.3007 16.6072 75.574C20.5198 76.8473 25.0314 77.9145 29.9624 78.7316C34.9827 79.5633 40.1253 80.0908 45.651 80.4138C51.0925 80.732 56.6435 80.8375 62.1459 80.8859C64.6722 80.9081 67.1986 80.9176 69.7259 80.9226C72.7257 80.9285 75.7253 80.9281 78.7252 80.9281L113.183 80.9284H139.248L173.639 80.928C176.633 80.928 179.627 80.9285 182.621 80.9226C185.143 80.9176 187.665 80.9081 190.186 80.8859C195.68 80.8374 201.222 80.7318 206.656 80.4134C212.167 80.0904 217.297 79.5631 222.305 78.7319C227.227 77.9149 231.731 76.8475 235.636 75.574C239.541 74.3009 242.814 72.8325 245.32 71.2277C247.871 69.5941 249.488 67.9206 250.479 66.1222C251.455 64.3513 251.779 62.5449 251.927 60.7541C251.995 59.932 252.024 59.1098 252.039 58.2875C252.058 57.3113 252.057 56.335 252.057 55.3588C252.057 55.3588 252.055 44.3521 252.055 44.1543V35.5837C252.055 35.4376 252.057 24.3849 252.057 24.3849Z" fill="url(#paint1_angular_8_136)"/>
</g>
</g>
<rect x="8.5" y="7.11481" width="235" height="68.0601" rx="34.0301" fill="black"/>
<path d="M77.1861 37.0569C77.0213 36.5398 76.7996 36.0766 76.5212 35.6674C76.2484 35.2526 75.9216 34.9002 75.5408 34.6104C75.16 34.3148 74.7253 34.0904 74.2365 33.9369C73.7535 33.7835 73.2221 33.7067 72.6424 33.7067C71.6592 33.7067 70.7727 33.9596 69.9827 34.4654C69.1928 34.9712 68.5676 35.7129 68.1073 36.6904C67.6527 37.6622 67.4253 38.8528 67.4253 40.2622C67.4253 41.6773 67.6555 42.8736 68.1158 43.8511C68.5762 44.8286 69.207 45.5702 70.0083 46.076C70.8096 46.5818 71.7218 46.8347 72.7447 46.8347C73.6938 46.8347 74.5207 46.6415 75.2254 46.2551C75.9358 45.8686 76.4842 45.323 76.8707 44.6183C77.2628 43.9079 77.4589 43.0725 77.4589 42.1121L78.1408 42.2399H73.1454V40.0661H80.0077V42.0524C80.0077 43.5186 79.6952 44.7917 79.07 45.8714C78.4506 46.9456 77.5924 47.7753 76.4956 48.3606C75.4044 48.946 74.1541 49.2387 72.7447 49.2387C71.1648 49.2387 69.7781 48.875 68.5847 48.1475C67.3969 47.4201 66.4706 46.3886 65.8056 45.0531C65.1407 43.7119 64.8083 42.1206 64.8083 40.2793C64.8083 38.8869 65.0015 37.6366 65.3879 36.5284C65.7744 35.4202 66.3171 34.4796 67.0161 33.7067C67.7209 32.9282 68.5477 32.3343 69.4968 31.9251C70.4516 31.5102 71.4944 31.3028 72.6254 31.3028C73.5688 31.3028 74.4468 31.442 75.2595 31.7205C76.0779 31.999 76.8053 32.3939 77.4418 32.9054C78.084 33.4169 78.6154 34.025 79.0359 34.7297C79.4565 35.4287 79.7406 36.2045 79.8884 37.0569H77.1861ZM88.0701 49.2643C86.78 49.2643 85.669 48.9886 84.737 48.4374C83.8106 47.8804 83.0945 47.099 82.5888 46.0931C82.0886 45.0815 81.8386 43.8966 81.8386 42.5383C81.8386 41.1971 82.0886 40.015 82.5888 38.992C83.0945 37.9691 83.7993 37.1706 84.7029 36.5966C85.6122 36.0226 86.6749 35.7356 87.8911 35.7356C88.6299 35.7356 89.346 35.8578 90.0393 36.1022C90.7327 36.3466 91.355 36.7302 91.9062 37.253C92.4575 37.7759 92.8922 38.455 93.2105 39.2904C93.5287 40.1201 93.6879 41.1289 93.6879 42.3167V43.2203H83.2793V41.3107H91.1901C91.1901 40.6401 91.0537 40.0463 90.781 39.5291C90.5082 39.0062 90.1246 38.5942 89.6301 38.293C89.1414 37.9918 88.5674 37.8412 87.9081 37.8412C87.1921 37.8412 86.5669 38.0174 86.0327 38.3697C85.5042 38.7164 85.095 39.1711 84.8052 39.7337C84.521 40.2906 84.3789 40.8959 84.3789 41.5494V43.0413C84.3789 43.9165 84.5324 44.6609 84.8393 45.2747C85.1518 45.8885 85.5866 46.3574 86.1435 46.6813C86.7005 46.9995 87.3512 47.1587 88.0957 47.1587C88.5788 47.1587 89.0192 47.0905 89.417 46.9541C89.8148 46.812 90.1587 46.6017 90.4485 46.3233C90.7383 46.0448 90.96 45.701 91.1134 45.2918L93.5259 45.7265C93.3327 46.4369 92.986 47.0592 92.4859 47.5934C91.9915 48.122 91.3692 48.534 90.619 48.8295C89.8745 49.1193 89.0249 49.2643 88.0701 49.2643ZM101.908 35.9061V37.952H94.7558V35.9061H101.908ZM96.6738 32.769H99.2227V45.1554C99.2227 45.6498 99.2966 46.022 99.4443 46.2721C99.5921 46.5165 99.7825 46.6841 100.015 46.7751C100.254 46.8603 100.513 46.9029 100.791 46.9029C100.996 46.9029 101.175 46.8887 101.328 46.8603C101.482 46.8319 101.601 46.8092 101.686 46.7921L102.147 48.8977C101.999 48.9545 101.789 49.0114 101.516 49.0682C101.243 49.1307 100.902 49.1648 100.493 49.1705C99.8222 49.1819 99.1971 49.0625 98.6174 48.8125C98.0378 48.5624 97.5689 48.1759 97.2109 47.6531C96.8528 47.1303 96.6738 46.4739 96.6738 45.6839V32.769ZM119.367 36.1278C119.276 35.3207 118.901 34.6956 118.242 34.2523C117.582 33.8034 116.753 33.5789 115.752 33.5789C115.036 33.5789 114.417 33.6925 113.894 33.9199C113.371 34.1415 112.965 34.4484 112.675 34.8405C112.391 35.227 112.249 35.6674 112.249 36.1619C112.249 36.5767 112.345 36.9348 112.539 37.236C112.737 37.5372 112.996 37.7901 113.314 37.9947C113.638 38.1936 113.985 38.3612 114.354 38.4976C114.724 38.6283 115.079 38.7363 115.42 38.8215L117.125 39.2648C117.682 39.4012 118.253 39.5859 118.838 39.8189C119.424 40.0519 119.966 40.3588 120.466 40.7396C120.967 41.1204 121.37 41.5921 121.677 42.1547C121.99 42.7173 122.146 43.3908 122.146 44.175C122.146 45.1639 121.89 46.0419 121.379 46.8092C120.873 47.5764 120.137 48.1816 119.171 48.6249C118.21 49.0682 117.048 49.2898 115.684 49.2898C114.377 49.2898 113.246 49.0824 112.291 48.6675C111.337 48.2527 110.589 47.6645 110.049 46.9029C109.509 46.1357 109.211 45.2264 109.154 44.175H111.797C111.848 44.8059 112.053 45.3316 112.411 45.7521C112.774 46.167 113.238 46.4767 113.8 46.6813C114.369 46.8802 114.991 46.9797 115.667 46.9797C116.412 46.9797 117.074 46.8631 117.653 46.6301C118.239 46.3915 118.699 46.0618 119.034 45.6413C119.37 45.215 119.537 44.7178 119.537 44.1495C119.537 43.6323 119.39 43.2089 119.094 42.8793C118.804 42.5497 118.409 42.2769 117.909 42.0609C117.415 41.845 116.855 41.6546 116.23 41.4898L114.167 40.9271C112.769 40.5464 111.661 39.9866 110.842 39.2478C110.029 38.509 109.623 37.5315 109.623 36.3153C109.623 35.3094 109.896 34.4313 110.441 33.6812C110.987 32.931 111.726 32.3485 112.658 31.9336C113.59 31.5131 114.641 31.3028 115.812 31.3028C116.994 31.3028 118.037 31.5102 118.941 31.9251C119.85 32.34 120.566 32.9111 121.089 33.6385C121.612 34.3603 121.884 35.19 121.907 36.1278H119.367ZM130.481 35.9061V37.952H123.329V35.9061H130.481ZM125.247 32.769H127.796V45.1554C127.796 45.6498 127.87 46.022 128.017 46.2721C128.165 46.5165 128.356 46.6841 128.589 46.7751C128.827 46.8603 129.086 46.9029 129.364 46.9029C129.569 46.9029 129.748 46.8887 129.901 46.8603C130.055 46.8319 130.174 46.8092 130.259 46.7921L130.72 48.8977C130.572 48.9545 130.362 49.0114 130.089 49.0682C129.816 49.1307 129.475 49.1648 129.066 49.1705C128.395 49.1819 127.77 49.0625 127.191 48.8125C126.611 48.5624 126.142 48.1759 125.784 47.6531C125.426 47.1303 125.247 46.4739 125.247 45.6839V32.769ZM136.391 49.2898C135.561 49.2898 134.811 49.1364 134.14 48.8295C133.47 48.5169 132.938 48.0651 132.546 47.4741C132.16 46.883 131.967 46.1584 131.967 45.3003C131.967 44.5615 132.109 43.9534 132.393 43.476C132.677 42.9986 133.061 42.6207 133.544 42.3422C134.027 42.0638 134.567 41.8535 135.163 41.7114C135.76 41.5693 136.368 41.4614 136.988 41.3875C137.772 41.2965 138.408 41.2227 138.897 41.1658C139.386 41.1033 139.741 41.0039 139.963 40.8675C140.184 40.7311 140.295 40.5094 140.295 40.2025V40.1429C140.295 39.3984 140.085 38.8215 139.664 38.4124C139.25 38.0032 138.63 37.7986 137.806 37.7986C136.948 37.7986 136.272 37.989 135.777 38.3697C135.288 38.7448 134.95 39.1625 134.763 39.6229L132.367 39.0773C132.651 38.2817 133.066 37.6395 133.612 37.1507C134.163 36.6563 134.797 36.2982 135.513 36.0766C136.229 35.8493 136.982 35.7356 137.772 35.7356C138.295 35.7356 138.849 35.7981 139.434 35.9232C140.025 36.0425 140.577 36.2641 141.088 36.5881C141.605 36.912 142.029 37.3752 142.358 37.9776C142.688 38.5743 142.853 39.3501 142.853 40.3048V49H140.363V47.2098H140.261C140.096 47.5394 139.849 47.8634 139.519 48.1816C139.19 48.4999 138.766 48.7642 138.249 48.9744C137.732 49.1847 137.113 49.2898 136.391 49.2898ZM136.945 47.2439C137.65 47.2439 138.252 47.1047 138.752 46.8262C139.258 46.5477 139.642 46.184 139.903 45.7351C140.17 45.2804 140.304 44.7945 140.304 44.2773V42.5894C140.213 42.6804 140.037 42.7656 139.775 42.8452C139.519 42.9191 139.227 42.9844 138.897 43.0413C138.568 43.0924 138.246 43.1407 137.934 43.1862C137.621 43.226 137.36 43.2601 137.15 43.2885C136.655 43.351 136.203 43.4561 135.794 43.6039C135.391 43.7516 135.067 43.9648 134.822 44.2432C134.584 44.516 134.464 44.8797 134.464 45.3344C134.464 45.9652 134.697 46.4426 135.163 46.7665C135.629 47.0848 136.223 47.2439 136.945 47.2439ZM145.527 49V35.9061H147.991V37.9861H148.127C148.366 37.2814 148.787 36.7273 149.389 36.3238C149.997 35.9146 150.685 35.71 151.452 35.71C151.611 35.71 151.799 35.7157 152.015 35.7271C152.236 35.7385 152.41 35.7527 152.535 35.7697V38.2078C152.432 38.1794 152.251 38.1481 151.989 38.114C151.728 38.0742 151.466 38.0543 151.205 38.0543C150.602 38.0543 150.065 38.1822 149.594 38.4379C149.128 38.688 148.758 39.0375 148.485 39.4865C148.213 39.9298 148.076 40.4356 148.076 41.0039V49H145.527ZM160.906 35.9061V37.952H153.754V35.9061H160.906ZM155.672 32.769H158.221V45.1554C158.221 45.6498 158.295 46.022 158.442 46.2721C158.59 46.5165 158.781 46.6841 159.014 46.7751C159.252 46.8603 159.511 46.9029 159.789 46.9029C159.994 46.9029 160.173 46.8887 160.326 46.8603C160.48 46.8319 160.599 46.8092 160.684 46.7921L161.145 48.8977C160.997 48.9545 160.787 49.0114 160.514 49.0682C160.241 49.1307 159.9 49.1648 159.491 49.1705C158.82 49.1819 158.195 49.0625 157.616 48.8125C157.036 48.5624 156.567 48.1759 156.209 47.6531C155.851 47.1303 155.672 46.4739 155.672 45.6839V32.769ZM168.508 49.2643C167.218 49.2643 166.107 48.9886 165.175 48.4374C164.249 47.8804 163.533 47.099 163.027 46.0931C162.527 45.0815 162.277 43.8966 162.277 42.5383C162.277 41.1971 162.527 40.015 163.027 38.992C163.533 37.9691 164.237 37.1706 165.141 36.5966C166.05 36.0226 167.113 35.7356 168.329 35.7356C169.068 35.7356 169.784 35.8578 170.477 36.1022C171.171 36.3466 171.793 36.7302 172.344 37.253C172.895 37.7759 173.33 38.455 173.648 39.2904C173.967 40.1201 174.126 41.1289 174.126 42.3167V43.2203H163.717V41.3107H171.628C171.628 40.6401 171.492 40.0463 171.219 39.5291C170.946 39.0062 170.563 38.5942 170.068 38.293C169.579 37.9918 169.005 37.8412 168.346 37.8412C167.63 37.8412 167.005 38.0174 166.471 38.3697C165.942 38.7164 165.533 39.1711 165.243 39.7337C164.959 40.2906 164.817 40.8959 164.817 41.5494V43.0413C164.817 43.9165 164.97 44.6609 165.277 45.2747C165.59 45.8885 166.025 46.3574 166.582 46.6813C167.138 46.9995 167.789 47.1587 168.534 47.1587C169.017 47.1587 169.457 47.0905 169.855 46.9541C170.253 46.812 170.597 46.6017 170.886 46.3233C171.176 46.0448 171.398 45.701 171.551 45.2918L173.964 45.7265C173.771 46.4369 173.424 47.0592 172.924 47.5934C172.429 48.122 171.807 48.534 171.057 48.8295C170.312 49.1193 169.463 49.2643 168.508 49.2643ZM181.135 49.2557C180.078 49.2557 179.135 48.9858 178.305 48.4459C177.481 47.9003 176.833 47.1246 176.362 46.1187C175.896 45.1071 175.663 43.8937 175.663 42.4786C175.663 41.0635 175.898 39.853 176.37 38.8471C176.848 37.8412 177.501 37.0711 178.331 36.5369C179.161 36.0027 180.101 35.7356 181.153 35.7356C181.965 35.7356 182.619 35.872 183.113 36.1448C183.613 36.4119 184 36.7245 184.273 37.0825C184.551 37.4406 184.767 37.756 184.92 38.0288H185.074V31.5415H187.623V49H185.134V46.9626H184.92C184.767 47.2411 184.545 47.5593 184.255 47.9174C183.971 48.2754 183.579 48.588 183.079 48.8551C182.579 49.1222 181.931 49.2557 181.135 49.2557ZM181.698 47.0819C182.431 47.0819 183.051 46.8887 183.556 46.5023C184.068 46.1101 184.454 45.5674 184.716 44.8741C184.983 44.1807 185.116 43.3737 185.116 42.4531C185.116 41.5438 184.986 40.7481 184.724 40.0661C184.463 39.3842 184.079 38.8528 183.574 38.472C183.068 38.0913 182.443 37.9009 181.698 37.9009C180.931 37.9009 180.292 38.0998 179.78 38.4976C179.269 38.8954 178.882 39.4382 178.621 40.1258C178.365 40.8135 178.237 41.5892 178.237 42.4531C178.237 43.3283 178.368 44.1154 178.629 44.8144C178.891 45.5134 179.277 46.0675 179.789 46.4767C180.306 46.8802 180.942 47.0819 181.698 47.0819Z" fill="white"/>
<defs>
<filter id="filter0_dii_8_136" x="-21.4516" y="-7.62563" width="294.96" height="125.022" filterUnits="userSpaceOnUse" color-interpolation-filters="sRGB">
<feFlood flood-opacity="0" result="BackgroundImageFix"/>
<feColorMatrix in="SourceAlpha" type="matrix" values="0 0 0 0 0 0 0 0 0 0 0 0 0 0 0 0 0 0 127 0" result="hardAlpha"/>
<feOffset dy="15.0161"/>
<feGaussianBlur stdDeviation="10.7258"/>
<feColorMatrix type="matrix" values="0 0 0 0 0 0 0 0 0 0 0 0 0 0 0 0 0 0 0.25 0"/>
<feBlend mode="normal" in2="BackgroundImageFix" result="effect1_dropShadow_8_136"/>
<feBlend mode="normal" in="SourceGraphic" in2="effect1_dropShadow_8_136" result="shape"/>
<feColorMatrix in="SourceAlpha" type="matrix" values="0 0 0 0 0 0 0 0 0 0 0 0 0 0 0 0 0 0 127 0" result="hardAlpha"/>
<feOffset dy="4.29033"/>
<feGaussianBlur stdDeviation="1.07258"/>
<feComposite in2="hardAlpha" operator="arithmetic" k2="-1" k3="1"/>
<feColorMatrix type="matrix" values="0 0 0 0 1 0 0 0 0 1 0 0 0 0 1 0 0 0 0.44 0"/>
<feBlend mode="normal" in2="shape" result="effect2_innerShadow_8_136"/>
<feColorMatrix in="SourceAlpha" type="matrix" values="0 0 0 0 0 0 0 0 0 0 0 0 0 0 0 0 0 0 127 0" result="hardAlpha"/>
<feOffset dy="-3.21774"/>
<feGaussianBlur stdDeviation="2.14516"/>
<feComposite in2="hardAlpha" operator="arithmetic" k2="-1" k3="1"/>
<feColorMatrix type="matrix" values="0 0 0 0 0 0 0 0 0 0 0 0 0 0 0 0 0 0 0.25 0"/>
<feBlend mode="normal" in2="effect2_innerShadow_8_136" result="effect3_innerShadow_8_136"/>
</filter>
<linearGradient id="paint0_linear_8_136" x1="126.028" y1="-1.19014" x2="126.028" y2="80.9284" gradientUnits="userSpaceOnUse">
<stop stop-color="#3A3D47"/>
<stop offset="1" stop-color="#23242B"/>
</linearGradient>
<radialGradient id="paint1_angular_8_136" cx="0" cy="0" r="1" gradientUnits="userSpaceOnUse" gradientTransform="translate(124.698 40.736) rotate(14.8564) scale(97.8627 48.916)">
<stop offset="0.0032037" stop-color="#1ABCFE"/>
<stop offset="0.218001" stop-color="#0ACF83"/>
<stop offset="0.400939" stop-color="#A259FF"/>
<stop offset="0.580534" stop-color="#F24E1E"/>
<stop offset="0.77854" stop-color="#FF7262"/>
</radialGradient>
</defs>
</svg>
