<svg width="31" height="32" viewBox="0 0 31 32" fill="none" xmlns="http://www.w3.org/2000/svg">
<rect x="0.657166" y="31.0857" width="30.3428" height="30.3428" rx="15.1714" transform="rotate(-90 0.657166 31.0857)" fill="black" fill-opacity="0.2"/>
<path d="M12.4714 22.1207C12.9509 22.1207 13.2631 21.7937 13.2631 21.319L13.2631 9.8199C13.2631 9.35572 12.9509 9.01813 12.4714 9.01813C12.0031 9.01813 11.6909 9.35572 11.6909 9.8199L11.6909 21.319C11.6909 21.7937 12.0031 22.1207 12.4714 22.1207Z" fill="white"/>
<path d="M16.1622 20.5594C16.6416 20.5594 16.9539 20.2324 16.9539 19.7576L16.9539 11.3812C16.9539 10.9171 16.6416 10.59 16.1622 10.59C15.6939 10.59 15.3816 10.9171 15.3816 11.3812L15.3816 19.7576C15.3816 20.2324 15.6939 20.5594 16.1622 20.5594Z" fill="white"/>
<path d="M19.8641 18.9242C20.3324 18.9242 20.6558 18.5972 20.6558 18.133L20.6558 13.0164C20.6558 12.5522 20.3324 12.2147 19.8641 12.2147C19.3958 12.2147 19.0836 12.5522 19.0836 13.0164L19.0836 18.133C19.0836 18.5972 19.3958 18.9242 19.8641 18.9242Z" fill="white"/>
</svg>
