<svg width="116" height="41" viewBox="0 0 116 41" fill="none" xmlns="http://www.w3.org/2000/svg">
<g filter="url(#filter0_bdddiiiiii_331_253)">
<rect x="4" y="1" width="108" height="33" rx="10" fill="white"/>
</g>
<path d="M17.4091 23V11.3636H24.4318V12.6136H18.8182V16.5455H24.0682V17.7955H18.8182V21.75H24.5227V23H17.4091ZM28.9652 23.1818C28.238 23.1818 27.5959 22.9981 27.0391 22.6307C26.4823 22.2595 26.0467 21.7367 25.7323 21.0625C25.4179 20.3845 25.2607 19.5833 25.2607 18.6591C25.2607 17.7424 25.4179 16.947 25.7323 16.2727C26.0467 15.5985 26.4842 15.0777 27.0448 14.7102C27.6054 14.3428 28.2531 14.1591 28.988 14.1591C29.5561 14.1591 30.005 14.2538 30.3345 14.4432C30.6679 14.6288 30.9217 14.8409 31.0959 15.0795C31.2739 15.3144 31.4122 15.5076 31.5107 15.6591H31.6243V11.3636H32.9652V23H31.6698V21.6591H31.5107C31.4122 21.8182 31.272 22.0189 31.0902 22.2614C30.9084 22.5 30.6489 22.714 30.3118 22.9034C29.9747 23.089 29.5258 23.1818 28.9652 23.1818ZM29.147 21.9773C29.6849 21.9773 30.1395 21.8371 30.5107 21.5568C30.8819 21.2727 31.1641 20.8807 31.3573 20.3807C31.5505 19.8769 31.647 19.2955 31.647 18.6364C31.647 17.9848 31.5523 17.4148 31.363 16.9261C31.1736 16.4337 30.8933 16.0511 30.522 15.7784C30.1508 15.5019 29.6925 15.3636 29.147 15.3636C28.5789 15.3636 28.1054 15.5095 27.7266 15.8011C27.3516 16.089 27.0694 16.4811 26.88 16.9773C26.6944 17.4697 26.6016 18.0227 26.6016 18.6364C26.6016 19.2576 26.6963 19.822 26.8857 20.3295C27.0789 20.8333 27.363 21.2348 27.738 21.5341C28.1167 21.8295 28.5864 21.9773 29.147 21.9773ZM34.4873 23V14.2727H35.8282V23H34.4873ZM35.1691 12.8182C34.9077 12.8182 34.6823 12.7292 34.493 12.5511C34.3073 12.3731 34.2145 12.1591 34.2145 11.9091C34.2145 11.6591 34.3073 11.4451 34.493 11.267C34.6823 11.089 34.9077 11 35.1691 11C35.4305 11 35.6539 11.089 35.8395 11.267C36.0289 11.4451 36.1236 11.6591 36.1236 11.9091C36.1236 12.1591 36.0289 12.3731 35.8395 12.5511C35.6539 12.7292 35.4305 12.8182 35.1691 12.8182ZM40.9596 14.2727V15.4091H36.4369V14.2727H40.9596ZM37.7551 12.1818H39.096V20.5C39.096 20.8788 39.1509 21.1629 39.2607 21.3523C39.3744 21.5379 39.5183 21.6629 39.6926 21.7273C39.8706 21.7879 40.0581 21.8182 40.2551 21.8182C40.4028 21.8182 40.524 21.8106 40.6187 21.7955C40.7134 21.7765 40.7891 21.7614 40.846 21.75L41.1187 22.9545C41.0278 22.9886 40.9009 23.0227 40.738 23.0568C40.5751 23.0947 40.3687 23.1136 40.1187 23.1136C39.7399 23.1136 39.3687 23.0322 39.0051 22.8693C38.6452 22.7064 38.346 22.4583 38.1073 22.125C37.8725 21.7917 37.7551 21.3712 37.7551 20.8636V12.1818ZM54.7821 15H53.373C53.2897 14.5947 53.1438 14.2386 52.9355 13.9318C52.731 13.625 52.481 13.3674 52.1855 13.1591C51.8938 12.947 51.57 12.7879 51.2139 12.6818C50.8579 12.5758 50.4866 12.5227 50.1003 12.5227C49.3957 12.5227 48.7575 12.7008 48.1855 13.0568C47.6173 13.4129 47.1647 13.9375 46.8276 14.6307C46.4942 15.3239 46.3276 16.1742 46.3276 17.1818C46.3276 18.1894 46.4942 19.0398 46.8276 19.733C47.1647 20.4261 47.6173 20.9508 48.1855 21.3068C48.7575 21.6629 49.3957 21.8409 50.1003 21.8409C50.4866 21.8409 50.8579 21.7879 51.2139 21.6818C51.57 21.5758 51.8938 21.4186 52.1855 21.2102C52.481 20.9981 52.731 20.7386 52.9355 20.4318C53.1438 20.1212 53.2897 19.7652 53.373 19.3636H54.7821C54.676 19.9583 54.4829 20.4905 54.2026 20.9602C53.9223 21.4299 53.5738 21.8295 53.1571 22.1591C52.7404 22.4848 52.2726 22.733 51.7537 22.9034C51.2385 23.0739 50.6874 23.1591 50.1003 23.1591C49.1079 23.1591 48.2253 22.9167 47.4526 22.4318C46.6798 21.947 46.0719 21.2576 45.6287 20.3636C45.1855 19.4697 44.9639 18.4091 44.9639 17.1818C44.9639 15.9545 45.1855 14.8939 45.6287 14C46.0719 13.1061 46.6798 12.4167 47.4526 11.9318C48.2253 11.447 49.1079 11.2045 50.1003 11.2045C50.6874 11.2045 51.2385 11.2898 51.7537 11.4602C52.2726 11.6307 52.7404 11.8807 53.1571 12.2102C53.5738 12.536 53.9223 12.9337 54.2026 13.4034C54.4829 13.8693 54.676 14.4015 54.7821 15ZM65.3027 15H63.8936C63.8103 14.5947 63.6645 14.2386 63.4561 13.9318C63.2516 13.625 63.0016 13.3674 62.7061 13.1591C62.4145 12.947 62.0906 12.7879 61.7345 12.6818C61.3785 12.5758 61.0073 12.5227 60.6209 12.5227C59.9164 12.5227 59.2781 12.7008 58.7061 13.0568C58.138 13.4129 57.6853 13.9375 57.3482 14.6307C57.0148 15.3239 56.8482 16.1742 56.8482 17.1818C56.8482 18.1894 57.0148 19.0398 57.3482 19.733C57.6853 20.4261 58.138 20.9508 58.7061 21.3068C59.2781 21.6629 59.9164 21.8409 60.6209 21.8409C61.0073 21.8409 61.3785 21.7879 61.7345 21.6818C62.0906 21.5758 62.4145 21.4186 62.7061 21.2102C63.0016 20.9981 63.2516 20.7386 63.4561 20.4318C63.6645 20.1212 63.8103 19.7652 63.8936 19.3636H65.3027C65.1967 19.9583 65.0035 20.4905 64.7232 20.9602C64.4429 21.4299 64.0944 21.8295 63.6777 22.1591C63.2611 22.4848 62.7933 22.733 62.2743 22.9034C61.7592 23.0739 61.208 23.1591 60.6209 23.1591C59.6285 23.1591 58.7459 22.9167 57.9732 22.4318C57.2005 21.947 56.5925 21.2576 56.1493 20.3636C55.7061 19.4697 55.4845 18.4091 55.4845 17.1818C55.4845 15.9545 55.7061 14.8939 56.1493 14C56.5925 13.1061 57.2005 12.4167 57.9732 11.9318C58.7459 11.447 59.6285 11.2045 60.6209 11.2045C61.208 11.2045 61.7592 11.2898 62.2743 11.4602C62.7933 11.6307 63.2611 11.8807 63.6777 12.2102C64.0944 12.536 64.4429 12.9337 64.7232 13.4034C65.0035 13.8693 65.1967 14.4015 65.3027 15ZM65.8234 12.6136V11.3636H74.5506V12.6136H70.8915V23H69.4824V12.6136H65.8234ZM76.0826 11.3636L79.5372 21.1591H79.6735L83.1281 11.3636H84.6053L80.3326 23H78.8781L74.6053 11.3636H76.0826Z" fill="black"/>
<path d="M89.0274 22.6837C88.923 22.8855 89.1388 23.0665 89.3058 22.9761L90.3499 22.4331L89.5912 21.6744L89.0274 22.6837ZM97.1157 13.7463L90.1342 20.686L89.9114 21.0828L90.9486 22.1269L91.3592 21.9111L98.3407 14.9644L97.1157 13.7463ZM99.8304 12.2567C99.4892 11.9156 98.9463 11.9156 98.6122 12.2497L97.7143 13.1476L98.9394 14.3727L99.8304 13.4818C100.171 13.1407 100.171 12.5908 99.8304 12.2567Z" fill="black" fill-opacity="0.85"/>
<defs>
<filter id="filter0_bdddiiiiii_331_253" x="-31.8" y="-34.8" width="179.6" height="104.6" filterUnits="userSpaceOnUse" color-interpolation-filters="sRGB">
<feFlood flood-opacity="0" result="BackgroundImageFix"/>
<feGaussianBlur in="BackgroundImageFix" stdDeviation="17.9"/>
<feComposite in2="SourceAlpha" operator="in" result="effect1_backgroundBlur_331_253"/>
<feColorMatrix in="SourceAlpha" type="matrix" values="0 0 0 0 0 0 0 0 0 0 0 0 0 0 0 0 0 0 127 0" result="hardAlpha"/>
<feOffset dy="3.39883"/>
<feGaussianBlur stdDeviation="1.80563"/>
<feColorMatrix type="matrix" values="0 0 0 0 0 0 0 0 0 0 0 0 0 0 0 0 0 0 0.06 0"/>
<feBlend mode="normal" in2="effect1_backgroundBlur_331_253" result="effect2_dropShadow_331_253"/>
<feColorMatrix in="SourceAlpha" type="matrix" values="0 0 0 0 0 0 0 0 0 0 0 0 0 0 0 0 0 0 127 0" result="hardAlpha"/>
<feOffset dy="3.39883"/>
<feGaussianBlur stdDeviation="1.80563"/>
<feColorMatrix type="matrix" values="0 0 0 0 0 0 0 0 0 0 0 0 0 0 0 0 0 0 0.06 0"/>
<feBlend mode="normal" in2="effect2_dropShadow_331_253" result="effect3_dropShadow_331_253"/>
<feColorMatrix in="SourceAlpha" type="matrix" values="0 0 0 0 0 0 0 0 0 0 0 0 0 0 0 0 0 0 127 0" result="hardAlpha"/>
<feOffset dy="3.39883"/>
<feGaussianBlur stdDeviation="1.80563"/>
<feColorMatrix type="matrix" values="0 0 0 0 0 0 0 0 0 0 0 0 0 0 0 0 0 0 0.06 0"/>
<feBlend mode="normal" in2="effect3_dropShadow_331_253" result="effect4_dropShadow_331_253"/>
<feBlend mode="normal" in="SourceGraphic" in2="effect4_dropShadow_331_253" result="shape"/>
<feColorMatrix in="SourceAlpha" type="matrix" values="0 0 0 0 0 0 0 0 0 0 0 0 0 0 0 0 0 0 127 0" result="hardAlpha"/>
<feOffset dy="-0.849706"/>
<feGaussianBlur stdDeviation="0.106213"/>
<feComposite in2="hardAlpha" operator="arithmetic" k2="-1" k3="1"/>
<feColorMatrix type="matrix" values="0 0 0 0 1 0 0 0 0 1 0 0 0 0 1 0 0 0 0.23 0"/>
<feBlend mode="normal" in2="shape" result="effect5_innerShadow_331_253"/>
<feColorMatrix in="SourceAlpha" type="matrix" values="0 0 0 0 0 0 0 0 0 0 0 0 0 0 0 0 0 0 127 0" result="hardAlpha"/>
<feOffset dy="-0.849706"/>
<feGaussianBlur stdDeviation="0.106213"/>
<feComposite in2="hardAlpha" operator="arithmetic" k2="-1" k3="1"/>
<feColorMatrix type="matrix" values="0 0 0 0 1 0 0 0 0 1 0 0 0 0 1 0 0 0 0.23 0"/>
<feBlend mode="normal" in2="effect5_innerShadow_331_253" result="effect6_innerShadow_331_253"/>
<feColorMatrix in="SourceAlpha" type="matrix" values="0 0 0 0 0 0 0 0 0 0 0 0 0 0 0 0 0 0 127 0" result="hardAlpha"/>
<feOffset dy="-0.849706"/>
<feGaussianBlur stdDeviation="0.106213"/>
<feComposite in2="hardAlpha" operator="arithmetic" k2="-1" k3="1"/>
<feColorMatrix type="matrix" values="0 0 0 0 1 0 0 0 0 1 0 0 0 0 1 0 0 0 0.23 0"/>
<feBlend mode="normal" in2="effect6_innerShadow_331_253" result="effect7_innerShadow_331_253"/>
<feColorMatrix in="SourceAlpha" type="matrix" values="0 0 0 0 0 0 0 0 0 0 0 0 0 0 0 0 0 0 127 0" result="hardAlpha"/>
<feOffset dy="-0.849706"/>
<feGaussianBlur stdDeviation="0.106213"/>
<feComposite in2="hardAlpha" operator="arithmetic" k2="-1" k3="1"/>
<feColorMatrix type="matrix" values="0 0 0 0 1 0 0 0 0 1 0 0 0 0 1 0 0 0 0.23 0"/>
<feBlend mode="normal" in2="effect7_innerShadow_331_253" result="effect8_innerShadow_331_253"/>
<feColorMatrix in="SourceAlpha" type="matrix" values="0 0 0 0 0 0 0 0 0 0 0 0 0 0 0 0 0 0 127 0" result="hardAlpha"/>
<feOffset dy="-0.849706"/>
<feGaussianBlur stdDeviation="0.106213"/>
<feComposite in2="hardAlpha" operator="arithmetic" k2="-1" k3="1"/>
<feColorMatrix type="matrix" values="0 0 0 0 1 0 0 0 0 1 0 0 0 0 1 0 0 0 0.23 0"/>
<feBlend mode="normal" in2="effect8_innerShadow_331_253" result="effect9_innerShadow_331_253"/>
<feColorMatrix in="SourceAlpha" type="matrix" values="0 0 0 0 0 0 0 0 0 0 0 0 0 0 0 0 0 0 127 0" result="hardAlpha"/>
<feOffset dy="-0.849706"/>
<feGaussianBlur stdDeviation="0.106213"/>
<feComposite in2="hardAlpha" operator="arithmetic" k2="-1" k3="1"/>
<feColorMatrix type="matrix" values="0 0 0 0 1 0 0 0 0 1 0 0 0 0 1 0 0 0 0.23 0"/>
<feBlend mode="normal" in2="effect9_innerShadow_331_253" result="effect10_innerShadow_331_253"/>
</filter>
</defs>
</svg>
