<svg width="27" height="29" viewBox="0 0 27 29" fill="none" xmlns="http://www.w3.org/2000/svg">
<g clip-path="url(#clip0_34_1221)">
<path d="M10.1024 26.3874C10.4511 26.3874 10.7512 26.2075 11.1579 25.9431L19.476 20.5795C19.8247 20.3573 19.9989 19.987 19.9989 19.6591C19.9989 19.2254 19.7085 18.8762 19.4374 18.7281L10.4704 24.3985C10.3251 24.4832 10.2089 24.5466 10.1024 24.5466C9.98625 24.5466 9.86998 24.4832 9.72472 24.3985L0.757812 18.7281C0.486672 18.8762 0.196167 19.2254 0.196167 19.6591C0.196167 19.987 0.370471 20.3573 0.728761 20.5795L9.03721 25.9431C9.4536 26.2075 9.74413 26.3874 10.1024 26.3874Z" fill="#DC484B"/>
<path d="M10.1024 21.521C10.4511 21.521 10.7512 21.3412 11.1579 21.0767L19.476 15.7131C19.8343 15.4698 19.9989 15.1207 19.9989 14.7927C19.9989 14.359 19.7085 13.9993 19.4374 13.8618L10.4704 19.5216C10.3251 19.6062 10.2089 19.6697 10.1024 19.6697C9.98625 19.6697 9.86998 19.6062 9.72472 19.5216L0.757812 13.8618C0.486672 13.9993 0.196167 14.359 0.196167 14.7927C0.196167 15.1207 0.370471 15.4804 0.728761 15.7131L9.03721 21.0767C9.4536 21.3412 9.74413 21.521 10.1024 21.521Z" fill="#DC484B"/>
<path d="M10.1025 16.3056C10.4898 16.3056 10.8675 16.168 11.3323 15.8718L18.9047 11.0689C19.6891 10.5717 19.9893 10.1803 19.9893 9.59844C19.9893 9.02717 19.6891 8.63573 18.9047 8.13852L11.3323 3.3356C10.8675 3.03939 10.4898 2.90186 10.1025 2.90186C9.7054 2.90186 9.33744 3.03939 8.86296 3.3356L1.29043 8.13852C0.506061 8.63573 0.205872 9.02717 0.205872 9.59844C0.205872 10.1803 0.506061 10.5717 1.29043 11.0689L8.86296 15.8718C9.33744 16.168 9.7054 16.3056 10.1025 16.3056ZM10.1025 14.4648C9.95718 14.4648 9.83133 14.4119 9.66665 14.3168L2.29751 9.70424C2.25878 9.68311 2.22973 9.65134 2.22973 9.59844C2.22973 9.5561 2.25878 9.52441 2.29751 9.5032L9.66665 4.89073C9.83133 4.79552 9.95718 4.74262 10.1025 4.74262C10.238 4.74262 10.3639 4.79552 10.5285 4.89073L17.8977 9.5032C17.9461 9.52441 17.9655 9.5561 17.9655 9.59844C17.9655 9.65134 17.9461 9.68311 17.8977 9.70424L10.5285 14.3168C10.3639 14.4119 10.238 14.4648 10.1025 14.4648Z" fill="#DC484B"/>
<path d="M15.5252 27.2445H23.9208C24.7149 27.2445 25.2281 26.6203 25.2281 25.8269C25.2281 25.5835 25.17 25.3508 25.0538 25.1181L20.8511 16.9299C20.5994 16.4432 20.1636 16.2104 19.7278 16.2104C19.2824 16.2104 18.837 16.4432 18.5949 16.9299L14.4019 25.1286C14.2857 25.3508 14.2276 25.5835 14.2276 25.8269C14.2276 26.6203 14.7311 27.2445 15.5252 27.2445Z" fill="#DC484B"/>
<path d="M19.7278 25.6364C19.2824 25.6364 18.9047 25.2344 18.9047 24.7372C18.9047 24.2506 19.2824 23.8486 19.7278 23.8486C20.183 23.8486 20.5509 24.2611 20.5413 24.7372C20.5413 25.2344 20.183 25.6364 19.7278 25.6364ZM19.7278 23.108C19.389 23.108 19.1565 22.8541 19.1468 22.4945L19.0597 19.4794C19.05 19.0456 19.3211 18.7494 19.7278 18.7494C20.1345 18.7494 20.4057 19.0456 20.396 19.4794L20.3186 22.4945C20.3088 22.8541 20.0668 23.108 19.7278 23.108Z" fill="white"/>
</g>
<defs>
<clipPath id="clip0_34_1221">
<rect width="26.3585" height="28.5741" fill="white" transform="translate(0.196167 0.119507)"/>
</clipPath>
</defs>
</svg>
