<svg width="15" height="15" viewBox="0 0 15 15" fill="none" xmlns="http://www.w3.org/2000/svg">
<path d="M12.7851 13.9781H10.1953C9.67376 13.9781 9.3374 13.8274 9.13038 13.6169C8.92209 13.4051 8.76791 13.0546 8.76791 12.5039V10.0078C8.76791 9.45709 8.92209 9.10662 9.13038 8.89482C9.3374 8.68431 9.67376 8.53359 10.1953 8.53359H12.7851C13.3067 8.53359 13.643 8.68431 13.85 8.89482C14.0583 9.10662 14.2125 9.45709 14.2125 10.0078V12.5039C14.2125 13.0546 14.0583 13.4051 13.85 13.6169C13.643 13.8274 13.3067 13.9781 12.7851 13.9781Z" stroke="black" stroke-width="1.2"/>
<path d="M4.61723 13.9781H2.01563C1.49429 13.9781 1.16206 13.8276 0.958385 13.6187C0.752673 13.4077 0.6 13.0571 0.6 12.5039V10.0078C0.6 9.45459 0.752673 9.10397 0.958385 8.893C1.16206 8.68413 1.49429 8.53359 2.01563 8.53359H4.61723C5.13854 8.53359 5.47077 8.68413 5.67444 8.893C5.88015 9.10397 6.03283 9.45459 6.03283 10.0078V12.5039C6.03283 13.0571 5.88015 13.4077 5.67444 13.6187C5.47077 13.8276 5.13854 13.9781 4.61723 13.9781Z" stroke="black" stroke-width="1.2"/>
<path d="M12.7851 6.04451H10.1953C9.67118 6.04451 9.33473 5.8952 9.12862 5.68735C8.92196 5.47895 8.76791 5.13258 8.76791 4.58201V2.07421C8.76791 1.5235 8.92209 1.17303 9.13038 0.96123C9.3374 0.750715 9.67376 0.6 10.1953 0.6H12.7851C13.3067 0.6 13.643 0.750715 13.85 0.96123C14.0583 1.17303 14.2125 1.5235 14.2125 2.07421V4.58201C14.2125 5.13258 14.0585 5.47895 13.8518 5.68736C13.6457 5.8952 13.3092 6.04451 12.7851 6.04451Z" stroke="black" stroke-width="1.2"/>
<path d="M4.61723 6.04451H2.01563C1.49169 6.04451 1.15938 5.89536 0.956639 5.68917C0.752554 5.48161 0.6 5.1351 0.6 4.58201V2.07421C0.6 1.521 0.752674 1.17037 0.958386 0.95941C1.16206 0.750539 1.49429 0.6 2.01563 0.6H4.61723C5.13854 0.6 5.47077 0.750536 5.67444 0.959409C5.88015 1.17038 6.03283 1.521 6.03283 2.07421V4.58201C6.03283 5.1351 5.88027 5.48161 5.67619 5.68917C5.47344 5.89537 5.14114 6.04451 4.61723 6.04451Z" stroke="black" stroke-width="1.2"/>
</svg>
